<mxfile host="app.diagrams.net" agent="Mozilla/5.0 (Macintosh; Intel Mac OS X 10_15_7) AppleWebKit/537.36 (KHTML, like Gecko) Chrome/137.0.0.0 Safari/537.36" version="27.2.0">
  <diagram name="Page-1" id="c1ubQ344bfS7AYT1Q15Q">
    <mxGraphModel dx="2963" dy="2329" grid="1" gridSize="10" guides="1" tooltips="1" connect="1" arrows="0" fold="1" page="0" pageScale="1" pageWidth="850" pageHeight="1100" background="light-dark(#FFFFFF,#8F8F8F)" math="0" shadow="0">
      <root>
        <mxCell id="0" />
        <mxCell id="1" parent="0" />
        <mxCell id="DrMG4tgp30xGP9o8YBfi-5" value="" style="edgeStyle=orthogonalEdgeStyle;rounded=0;orthogonalLoop=1;jettySize=auto;html=1;entryX=0;entryY=0.5;entryDx=0;entryDy=0;" edge="1" parent="1" source="DrMG4tgp30xGP9o8YBfi-2" target="DrMG4tgp30xGP9o8YBfi-3">
          <mxGeometry relative="1" as="geometry" />
        </mxCell>
        <mxCell id="DrMG4tgp30xGP9o8YBfi-2" value="&lt;p style=&quot;margin:0px;margin-top:4px;text-align:center;&quot;&gt;&lt;b&gt;Vehicle&lt;/b&gt;&lt;/p&gt;&lt;hr size=&quot;1&quot; style=&quot;border-style:solid;&quot;&gt;&lt;p style=&quot;margin:0px;margin-left:4px;&quot;&gt;+ id: int&lt;/p&gt;&lt;p style=&quot;margin:0px;margin-left:4px;&quot;&gt;+ vehicleNo : int&lt;/p&gt;&lt;p style=&quot;margin:0px;margin-left:4px;&quot;&gt;+ vehicleType : VehicleType&lt;/p&gt;&lt;p style=&quot;margin:0px;margin-left:4px;&quot;&gt;+ kmDriven : int&lt;/p&gt;&lt;p style=&quot;margin:0px;margin-left:4px;&quot;&gt;+ dailyRentCost : int&lt;/p&gt;&lt;p style=&quot;margin:0px;margin-left:4px;&quot;&gt;+ monthlyRentCost : int&lt;/p&gt;&lt;p style=&quot;margin:0px;margin-left:4px;&quot;&gt;+ Status : status&lt;/p&gt;&lt;hr size=&quot;1&quot; style=&quot;border-style:solid;&quot;&gt;&lt;p style=&quot;margin:0px;margin-left:4px;&quot;&gt;&lt;br&gt;&lt;/p&gt;" style="verticalAlign=top;align=left;overflow=fill;html=1;whiteSpace=wrap;" vertex="1" parent="1">
          <mxGeometry x="360" y="-470" width="160" height="170" as="geometry" />
        </mxCell>
        <mxCell id="DrMG4tgp30xGP9o8YBfi-3" value="&lt;p style=&quot;margin:0px;margin-top:4px;text-align:center;&quot;&gt;&lt;b&gt;VehicleType&lt;/b&gt;&lt;/p&gt;&lt;p style=&quot;margin:0px;margin-top:4px;text-align:center;&quot;&gt;Car, Bike&lt;/p&gt;" style="verticalAlign=top;align=left;overflow=fill;html=1;whiteSpace=wrap;" vertex="1" parent="1">
          <mxGeometry x="570" y="-550" width="140" height="60" as="geometry" />
        </mxCell>
        <mxCell id="DrMG4tgp30xGP9o8YBfi-6" value="" style="edgeStyle=orthogonalEdgeStyle;rounded=0;orthogonalLoop=1;jettySize=auto;html=1;" edge="1" parent="1" source="DrMG4tgp30xGP9o8YBfi-2" target="DrMG4tgp30xGP9o8YBfi-4">
          <mxGeometry relative="1" as="geometry" />
        </mxCell>
        <mxCell id="DrMG4tgp30xGP9o8YBfi-4" value="&lt;p style=&quot;margin:0px;margin-top:4px;text-align:center;&quot;&gt;&lt;b&gt;Status&lt;/b&gt;&lt;/p&gt;&lt;p style=&quot;margin:0px;margin-top:4px;text-align:center;&quot;&gt;Active&lt;b&gt;, &lt;/b&gt;Inactive&lt;b&gt;&amp;nbsp;&lt;/b&gt;&lt;/p&gt;" style="verticalAlign=top;align=left;overflow=fill;html=1;whiteSpace=wrap;" vertex="1" parent="1">
          <mxGeometry x="590" y="-455" width="140" height="60" as="geometry" />
        </mxCell>
        <mxCell id="DrMG4tgp30xGP9o8YBfi-9" value="" style="edgeStyle=orthogonalEdgeStyle;rounded=0;orthogonalLoop=1;jettySize=auto;html=1;endArrow=block;endFill=0;" edge="1" parent="1" source="DrMG4tgp30xGP9o8YBfi-7" target="DrMG4tgp30xGP9o8YBfi-2">
          <mxGeometry relative="1" as="geometry" />
        </mxCell>
        <mxCell id="DrMG4tgp30xGP9o8YBfi-7" value="&lt;p style=&quot;margin:0px;margin-top:4px;text-align:center;&quot;&gt;&lt;b&gt;Car&lt;/b&gt;&lt;/p&gt;&lt;hr size=&quot;1&quot; style=&quot;border-style:solid;&quot;&gt;&lt;div style=&quot;height:2px;&quot;&gt;&lt;/div&gt;" style="verticalAlign=top;align=left;overflow=fill;html=1;whiteSpace=wrap;" vertex="1" parent="1">
          <mxGeometry x="290" y="-250" width="140" height="60" as="geometry" />
        </mxCell>
        <mxCell id="DrMG4tgp30xGP9o8YBfi-10" value="" style="edgeStyle=orthogonalEdgeStyle;rounded=0;orthogonalLoop=1;jettySize=auto;html=1;endArrow=blockThin;endFill=0;" edge="1" parent="1" source="DrMG4tgp30xGP9o8YBfi-8" target="DrMG4tgp30xGP9o8YBfi-2">
          <mxGeometry relative="1" as="geometry" />
        </mxCell>
        <mxCell id="DrMG4tgp30xGP9o8YBfi-8" value="&lt;p style=&quot;margin:0px;margin-top:4px;text-align:center;&quot;&gt;&lt;b&gt;Bike&lt;/b&gt;&lt;/p&gt;&lt;hr size=&quot;1&quot; style=&quot;border-style:solid;&quot;&gt;&lt;div style=&quot;height:2px;&quot;&gt;&lt;/div&gt;" style="verticalAlign=top;align=left;overflow=fill;html=1;whiteSpace=wrap;" vertex="1" parent="1">
          <mxGeometry x="470" y="-250" width="140" height="60" as="geometry" />
        </mxCell>
        <mxCell id="DrMG4tgp30xGP9o8YBfi-13" value="" style="edgeStyle=orthogonalEdgeStyle;rounded=0;orthogonalLoop=1;jettySize=auto;html=1;" edge="1" parent="1" source="DrMG4tgp30xGP9o8YBfi-11" target="DrMG4tgp30xGP9o8YBfi-12">
          <mxGeometry relative="1" as="geometry" />
        </mxCell>
        <mxCell id="DrMG4tgp30xGP9o8YBfi-22" value="" style="edgeStyle=orthogonalEdgeStyle;rounded=0;orthogonalLoop=1;jettySize=auto;html=1;" edge="1" parent="1" source="DrMG4tgp30xGP9o8YBfi-11" target="DrMG4tgp30xGP9o8YBfi-21">
          <mxGeometry relative="1" as="geometry" />
        </mxCell>
        <mxCell id="DrMG4tgp30xGP9o8YBfi-27" value="" style="edgeStyle=orthogonalEdgeStyle;rounded=0;orthogonalLoop=1;jettySize=auto;html=1;" edge="1" parent="1" source="DrMG4tgp30xGP9o8YBfi-11" target="DrMG4tgp30xGP9o8YBfi-23">
          <mxGeometry relative="1" as="geometry" />
        </mxCell>
        <mxCell id="DrMG4tgp30xGP9o8YBfi-28" value="many to 1" style="edgeLabel;html=1;align=center;verticalAlign=middle;resizable=0;points=[];" vertex="1" connectable="0" parent="DrMG4tgp30xGP9o8YBfi-27">
          <mxGeometry x="0.0222" y="4" relative="1" as="geometry">
            <mxPoint as="offset" />
          </mxGeometry>
        </mxCell>
        <mxCell id="DrMG4tgp30xGP9o8YBfi-11" value="&lt;p style=&quot;margin:0px;margin-top:4px;text-align:center;&quot;&gt;&lt;b&gt;Store&lt;/b&gt;&lt;/p&gt;&lt;hr size=&quot;1&quot; style=&quot;border-style:solid;&quot;&gt;&lt;p style=&quot;margin:0px;margin-left:4px;&quot;&gt;+ int storeId;&lt;/p&gt;&lt;p style=&quot;margin:0px;margin-left:4px;&quot;&gt;+ &lt;span style=&quot;background-color: transparent; color: light-dark(rgb(0, 0, 0), rgb(255, 255, 255));&quot;&gt;VehicleInventory invObj;&lt;/span&gt;&lt;br&gt;&lt;/p&gt;&lt;p style=&quot;margin:0px;margin-left:4px;&quot;&gt;&lt;span style=&quot;background-color: transparent; color: light-dark(rgb(0, 0, 0), rgb(255, 255, 255));&quot;&gt;+ Location loc;&lt;/span&gt;&lt;/p&gt;&lt;p style=&quot;margin:0px;margin-left:4px;&quot;&gt;&lt;span style=&quot;background-color: transparent; color: light-dark(rgb(0, 0, 0), rgb(255, 255, 255));&quot;&gt;+ List&amp;lt;Reservations&amp;gt; reservationList;&lt;/span&gt;&lt;/p&gt;&lt;hr size=&quot;1&quot; style=&quot;border-style:solid;&quot;&gt;&lt;p style=&quot;margin:0px;margin-left:4px;&quot;&gt;&lt;br&gt;&lt;/p&gt;" style="verticalAlign=top;align=left;overflow=fill;html=1;whiteSpace=wrap;" vertex="1" parent="1">
          <mxGeometry x="-310" y="-740" width="230" height="170" as="geometry" />
        </mxCell>
        <mxCell id="DrMG4tgp30xGP9o8YBfi-14" style="edgeStyle=orthogonalEdgeStyle;rounded=0;orthogonalLoop=1;jettySize=auto;html=1;entryX=0.5;entryY=0;entryDx=0;entryDy=0;" edge="1" parent="1" source="DrMG4tgp30xGP9o8YBfi-12" target="DrMG4tgp30xGP9o8YBfi-2">
          <mxGeometry relative="1" as="geometry" />
        </mxCell>
        <mxCell id="DrMG4tgp30xGP9o8YBfi-15" value="many to 1" style="edgeLabel;html=1;align=center;verticalAlign=middle;resizable=0;points=[];" vertex="1" connectable="0" parent="DrMG4tgp30xGP9o8YBfi-14">
          <mxGeometry x="0.0836" y="1" relative="1" as="geometry">
            <mxPoint as="offset" />
          </mxGeometry>
        </mxCell>
        <mxCell id="DrMG4tgp30xGP9o8YBfi-12" value="&lt;p style=&quot;margin:0px;margin-top:4px;text-align:center;&quot;&gt;&lt;b&gt;VehicleInventory&lt;/b&gt;&lt;/p&gt;&lt;hr size=&quot;1&quot; style=&quot;border-style:solid;&quot;&gt;&lt;p style=&quot;margin:0px;margin-left:4px;&quot;&gt;+ List&amp;lt;Vehicle&amp;gt; list;&lt;/p&gt;&lt;hr size=&quot;1&quot; style=&quot;border-style:solid;&quot;&gt;&lt;p style=&quot;margin:0px;margin-left:4px;&quot;&gt;//CRUD&lt;/p&gt;" style="verticalAlign=top;align=left;overflow=fill;html=1;whiteSpace=wrap;" vertex="1" parent="1">
          <mxGeometry x="70" y="-740" width="200" height="120" as="geometry" />
        </mxCell>
        <mxCell id="DrMG4tgp30xGP9o8YBfi-18" style="edgeStyle=orthogonalEdgeStyle;rounded=0;orthogonalLoop=1;jettySize=auto;html=1;entryX=0.5;entryY=1;entryDx=0;entryDy=0;endArrow=block;endFill=0;" edge="1" parent="1" source="DrMG4tgp30xGP9o8YBfi-16" target="DrMG4tgp30xGP9o8YBfi-12">
          <mxGeometry relative="1" as="geometry" />
        </mxCell>
        <mxCell id="DrMG4tgp30xGP9o8YBfi-16" value="&lt;p style=&quot;margin:0px;margin-top:4px;text-align:center;&quot;&gt;&lt;b&gt;CarInventoryManagement&lt;/b&gt;&lt;/p&gt;&lt;hr size=&quot;1&quot; style=&quot;border-style:solid;&quot;&gt;&lt;div style=&quot;height:2px;&quot;&gt;&lt;/div&gt;" style="verticalAlign=top;align=left;overflow=fill;html=1;whiteSpace=wrap;" vertex="1" parent="1">
          <mxGeometry x="-15" y="-555" width="170" height="60" as="geometry" />
        </mxCell>
        <mxCell id="DrMG4tgp30xGP9o8YBfi-20" value="" style="edgeStyle=orthogonalEdgeStyle;rounded=0;orthogonalLoop=1;jettySize=auto;html=1;endArrow=block;endFill=0;" edge="1" parent="1" source="DrMG4tgp30xGP9o8YBfi-17" target="DrMG4tgp30xGP9o8YBfi-12">
          <mxGeometry relative="1" as="geometry" />
        </mxCell>
        <mxCell id="DrMG4tgp30xGP9o8YBfi-17" value="&lt;p style=&quot;margin:0px;margin-top:4px;text-align:center;&quot;&gt;&lt;b&gt;BikeInventoryManagement&lt;/b&gt;&lt;/p&gt;&lt;hr size=&quot;1&quot; style=&quot;border-style:solid;&quot;&gt;&lt;div style=&quot;height:2px;&quot;&gt;&lt;/div&gt;" style="verticalAlign=top;align=left;overflow=fill;html=1;whiteSpace=wrap;" vertex="1" parent="1">
          <mxGeometry x="185" y="-550" width="170" height="60" as="geometry" />
        </mxCell>
        <mxCell id="DrMG4tgp30xGP9o8YBfi-21" value="&lt;p style=&quot;margin:0px;margin-top:4px;text-align:center;&quot;&gt;&lt;b&gt;Location&lt;/b&gt;&lt;/p&gt;&lt;hr size=&quot;1&quot; style=&quot;border-style:solid;&quot;&gt;&lt;p style=&quot;margin:0px;margin-left:4px;&quot;&gt;+ String address;&lt;br&gt;&lt;/p&gt;&lt;p style=&quot;margin:0px;margin-left:4px;&quot;&gt;+ String city;&lt;/p&gt;&lt;p style=&quot;margin:0px;margin-left:4px;&quot;&gt;+ String state;&lt;/p&gt;&lt;p style=&quot;margin:0px;margin-left:4px;&quot;&gt;+ String pincode;&lt;/p&gt;&lt;hr size=&quot;1&quot; style=&quot;border-style:solid;&quot;&gt;&lt;p style=&quot;margin:0px;margin-left:4px;&quot;&gt;&lt;br&gt;&lt;/p&gt;" style="verticalAlign=top;align=left;overflow=fill;html=1;whiteSpace=wrap;flipH=1;" vertex="1" parent="1">
          <mxGeometry x="-600" y="-740" width="230" height="170" as="geometry" />
        </mxCell>
        <mxCell id="DrMG4tgp30xGP9o8YBfi-26" value="" style="edgeStyle=orthogonalEdgeStyle;rounded=0;orthogonalLoop=1;jettySize=auto;html=1;" edge="1" parent="1" source="DrMG4tgp30xGP9o8YBfi-23" target="DrMG4tgp30xGP9o8YBfi-25">
          <mxGeometry relative="1" as="geometry" />
        </mxCell>
        <mxCell id="DrMG4tgp30xGP9o8YBfi-30" value="" style="edgeStyle=orthogonalEdgeStyle;rounded=0;orthogonalLoop=1;jettySize=auto;html=1;" edge="1" parent="1" source="DrMG4tgp30xGP9o8YBfi-23" target="DrMG4tgp30xGP9o8YBfi-29">
          <mxGeometry relative="1" as="geometry" />
        </mxCell>
        <mxCell id="DrMG4tgp30xGP9o8YBfi-23" value="&lt;p style=&quot;margin:0px;margin-top:4px;text-align:center;&quot;&gt;&lt;b&gt;Reservation&lt;/b&gt;&lt;/p&gt;&lt;hr size=&quot;1&quot; style=&quot;border-style:solid;&quot;&gt;&lt;p style=&quot;margin:0px;margin-left:4px;&quot;&gt;+ int reservationId;&lt;/p&gt;&lt;p style=&quot;margin:0px;margin-left:4px;&quot;&gt;+ User user;&lt;br&gt;&lt;/p&gt;&lt;p style=&quot;margin:0px;margin-left:4px;&quot;&gt;+ Vehicle vehicle;&lt;/p&gt;&lt;p style=&quot;margin:0px;margin-left:4px;&quot;&gt;+ Date bookingDate;&lt;/p&gt;&lt;p style=&quot;margin:0px;margin-left:4px;&quot;&gt;+ Date bookedFrom;&lt;/p&gt;&lt;p style=&quot;margin:0px;margin-left:4px;&quot;&gt;+ Date bookedTill;&lt;br&gt;+ ReservationStatus status;&lt;/p&gt;&lt;hr size=&quot;1&quot; style=&quot;border-style:solid;&quot;&gt;&lt;p style=&quot;margin:0px;margin-left:4px;&quot;&gt;&lt;br&gt;&lt;/p&gt;" style="verticalAlign=top;align=left;overflow=fill;html=1;whiteSpace=wrap;" vertex="1" parent="1">
          <mxGeometry x="-300" y="-470" width="230" height="170" as="geometry" />
        </mxCell>
        <mxCell id="DrMG4tgp30xGP9o8YBfi-24" value="&lt;b&gt;&lt;font style=&quot;font-size: 15px;&quot;&gt;CAR RENTAL SYSTEM - LLD&lt;/font&gt;&lt;/b&gt;" style="rounded=0;whiteSpace=wrap;html=1;" vertex="1" parent="1">
          <mxGeometry x="-340" y="-930" width="300" height="40" as="geometry" />
        </mxCell>
        <mxCell id="DrMG4tgp30xGP9o8YBfi-25" value="&lt;p style=&quot;margin:0px;margin-top:4px;text-align:center;&quot;&gt;&lt;b&gt;ReservationStatus&lt;/b&gt;&lt;/p&gt;&lt;p style=&quot;margin:0px;margin-top:4px;text-align:center;&quot;&gt;SCHEDULED,&amp;nbsp;&lt;/p&gt;&lt;p style=&quot;margin:0px;margin-top:4px;text-align:center;&quot;&gt;INPROGRESS,&lt;/p&gt;&lt;p style=&quot;margin:0px;margin-top:4px;text-align:center;&quot;&gt;CLOSED,&lt;/p&gt;&lt;p style=&quot;margin:0px;margin-top:4px;text-align:center;&quot;&gt;CANCELLED&lt;/p&gt;" style="verticalAlign=top;align=left;overflow=fill;html=1;whiteSpace=wrap;" vertex="1" parent="1">
          <mxGeometry x="-270" y="-260" width="140" height="100" as="geometry" />
        </mxCell>
        <mxCell id="DrMG4tgp30xGP9o8YBfi-29" value="&lt;p style=&quot;margin:0px;margin-top:4px;text-align:center;&quot;&gt;&lt;b&gt;User&lt;/b&gt;&lt;/p&gt;&lt;hr size=&quot;1&quot; style=&quot;border-style:solid;&quot;&gt;&lt;p style=&quot;margin:0px;margin-left:4px;&quot;&gt;+ int userId;&lt;br&gt;&lt;/p&gt;&lt;p style=&quot;margin:0px;margin-left:4px;&quot;&gt;+ String userName;&lt;/p&gt;&lt;p style=&quot;margin:0px;margin-left:4px;&quot;&gt;+ String drivingLicense;&lt;/p&gt;&lt;hr size=&quot;1&quot; style=&quot;border-style:solid;&quot;&gt;&lt;p style=&quot;margin:0px;margin-left:4px;&quot;&gt;&lt;br&gt;&lt;/p&gt;" style="verticalAlign=top;align=left;overflow=fill;html=1;whiteSpace=wrap;flipH=1;" vertex="1" parent="1">
          <mxGeometry x="-610" y="-470" width="230" height="120" as="geometry" />
        </mxCell>
        <mxCell id="DrMG4tgp30xGP9o8YBfi-33" style="edgeStyle=orthogonalEdgeStyle;rounded=0;orthogonalLoop=1;jettySize=auto;html=1;entryX=0;entryY=0.5;entryDx=0;entryDy=0;" edge="1" parent="1" source="DrMG4tgp30xGP9o8YBfi-31" target="DrMG4tgp30xGP9o8YBfi-29">
          <mxGeometry relative="1" as="geometry" />
        </mxCell>
        <mxCell id="DrMG4tgp30xGP9o8YBfi-34" style="edgeStyle=orthogonalEdgeStyle;rounded=0;orthogonalLoop=1;jettySize=auto;html=1;entryX=0.5;entryY=0;entryDx=0;entryDy=0;" edge="1" parent="1" source="DrMG4tgp30xGP9o8YBfi-31" target="DrMG4tgp30xGP9o8YBfi-11">
          <mxGeometry relative="1" as="geometry">
            <Array as="points">
              <mxPoint x="-815" y="-800" />
              <mxPoint x="-460" y="-800" />
              <mxPoint x="-460" y="-760" />
              <mxPoint x="-195" y="-760" />
            </Array>
          </mxGeometry>
        </mxCell>
        <mxCell id="DrMG4tgp30xGP9o8YBfi-31" value="&lt;p style=&quot;margin:0px;margin-top:4px;text-align:center;&quot;&gt;&lt;b&gt;Vehicle Rental System&lt;/b&gt;&lt;/p&gt;&lt;hr size=&quot;1&quot; style=&quot;border-style:solid;&quot;&gt;&lt;p style=&quot;margin:0px;margin-left:4px;&quot;&gt;&lt;span style=&quot;background-color: transparent; color: light-dark(rgb(0, 0, 0), rgb(255, 255, 255));&quot;&gt;+ List&amp;lt;User&amp;gt; users;&lt;/span&gt;&lt;br&gt;&lt;/p&gt;&lt;p style=&quot;margin: 0px 0px 0px 4px;&quot;&gt;+ List&amp;lt;Store&amp;gt; stores;&lt;/p&gt;&lt;hr size=&quot;1&quot; style=&quot;border-style:solid;&quot;&gt;&lt;p style=&quot;margin:0px;margin-left:4px;&quot;&gt;&lt;br&gt;&lt;/p&gt;" style="verticalAlign=top;align=left;overflow=fill;html=1;whiteSpace=wrap;flipH=1;" vertex="1" parent="1">
          <mxGeometry x="-930" y="-610" width="230" height="170" as="geometry" />
        </mxCell>
        <mxCell id="DrMG4tgp30xGP9o8YBfi-36" style="edgeStyle=orthogonalEdgeStyle;rounded=0;orthogonalLoop=1;jettySize=auto;html=1;entryX=0;entryY=0.75;entryDx=0;entryDy=0;" edge="1" parent="1" source="DrMG4tgp30xGP9o8YBfi-35" target="DrMG4tgp30xGP9o8YBfi-23">
          <mxGeometry relative="1" as="geometry" />
        </mxCell>
        <mxCell id="DrMG4tgp30xGP9o8YBfi-35" value="&lt;p style=&quot;margin:0px;margin-top:4px;text-align:center;&quot;&gt;&lt;b&gt;Bill&lt;/b&gt;&lt;/p&gt;&lt;hr size=&quot;1&quot; style=&quot;border-style:solid;&quot;&gt;&lt;p style=&quot;margin:0px;margin-left:4px;&quot;&gt;+ Reservation reservation;&lt;/p&gt;&lt;p style=&quot;margin:0px;margin-left:4px;&quot;&gt;+ boolean isPaid;&lt;/p&gt;&lt;p style=&quot;margin:0px;margin-left:4px;&quot;&gt;+ double amount;&lt;/p&gt;&lt;hr size=&quot;1&quot; style=&quot;border-style:solid;&quot;&gt;&lt;p style=&quot;margin:0px;margin-left:4px;&quot;&gt;&lt;br&gt;&lt;/p&gt;" style="verticalAlign=top;align=left;overflow=fill;html=1;whiteSpace=wrap;flipH=1;" vertex="1" parent="1">
          <mxGeometry x="-570" y="-270" width="230" height="110" as="geometry" />
        </mxCell>
        <mxCell id="DrMG4tgp30xGP9o8YBfi-38" value="" style="edgeStyle=orthogonalEdgeStyle;rounded=0;orthogonalLoop=1;jettySize=auto;html=1;" edge="1" parent="1" source="DrMG4tgp30xGP9o8YBfi-37" target="DrMG4tgp30xGP9o8YBfi-35">
          <mxGeometry relative="1" as="geometry" />
        </mxCell>
        <mxCell id="DrMG4tgp30xGP9o8YBfi-37" value="&lt;p style=&quot;margin:0px;margin-top:4px;text-align:center;&quot;&gt;&lt;b&gt;Payment&lt;/b&gt;&lt;/p&gt;&lt;hr size=&quot;1&quot; style=&quot;border-style:solid;&quot;&gt;&lt;p style=&quot;margin:0px;margin-left:4px;&quot;&gt;+ Bill bill;&lt;/p&gt;&lt;p style=&quot;margin:0px;margin-left:4px;&quot;&gt;+ String paymentMode;&lt;/p&gt;&lt;hr size=&quot;1&quot; style=&quot;border-style:solid;&quot;&gt;&lt;p style=&quot;margin:0px;margin-left:4px;&quot;&gt;&lt;br&gt;&lt;/p&gt;" style="verticalAlign=top;align=left;overflow=fill;html=1;whiteSpace=wrap;flipH=1;" vertex="1" parent="1">
          <mxGeometry x="-840" y="-270" width="230" height="110" as="geometry" />
        </mxCell>
      </root>
    </mxGraphModel>
  </diagram>
</mxfile>
